<?xml version="1.0" encoding="UTF-8" standalone="no" ?>
<!DOCTYPE svg PUBLIC "-//W3C//DTD SVG 1.1//EN" "http://www.w3.org/Graphics/SVG/1.1/DTD/svg11.dtd">
<svg xmlns="http://www.w3.org/2000/svg" xmlns:xlink="http://www.w3.org/1999/xlink" version="1.1" width="1080" height="1132" viewBox="0 0 1080 1132" xml:space="preserve">
<desc>Created with Fabric.js 5.3.0</desc>
<defs>
</defs>
<g transform="matrix(1 0 0 1 540 566)"  >
	<image style="stroke: none; stroke-width: 0; stroke-dasharray: none; stroke-linecap: butt; stroke-dashoffset: 0; stroke-linejoin: miter; stroke-miterlimit: 4; fill: rgb(0,0,0); fill-rule: nonzero; opacity: 1;"  xlink:href="https://github.com/DuyetQB/google-drive/blob/master/public/images/image1.jpg?raw=true" x="-540" y="-566" width="1080" height="1132"></image>
</g>
<g transform="matrix(1 0 0 1 489.06 218.39)"  >
<path style="stroke: rgb(0,0,0); stroke-width: 1; stroke-dasharray: none; stroke-linecap: round; stroke-dashoffset: 0; stroke-linejoin: round; stroke-miterlimit: 10; fill: none; fill-rule: nonzero; opacity: 1;"  transform=" translate(-489.06, -218.39)" d="M 330.0741709007779 242.88282941130004 Q 330.0751709007779 242.88182941130003 331.0751003799794 242.88182941130003 Q 332.07502985918086 242.88182941130003 333.57492407798316 242.38201102981634 Q 335.0748182967854 241.88219264833265 338.5745714739907 239.88291912239788 Q 342.07432465119604 237.8836455964631 346.074042568002 233.88509854459357 Q 350.0737604848081 229.88655149272407 355.07340788081564 225.38818605937087 Q 360.0730552768232 220.88982062601764 364.57273793323 215.89163681118072 Q 369.0724205896368 210.89345299634383 374.07206798564437 206.89490594447432 Q 379.0717153816519 202.89635889260478 383.57139803805876 198.89781184073527 Q 388.07108069446554 194.89926478886576 392.5707633508723 191.40053611847992 Q 397.0704460072791 187.90180744809408 400.5701991844844 184.90289715919192 Q 404.0699523616897 181.9039868702898 406.5697760596935 179.90471334435503 Q 409.06959975769723 177.90543981842026 410.56949397649953 176.9058030554529 Q 412.06938819530177 175.90616629248552 413.0693176745033 175.40634791100183 Q 414.0692471537048 174.9065295295181 414.5692118933056 174.9065295295181 Q 415.0691766329063 174.9065295295181 415.0691766329063 176.4059846739692 Q 415.0691766329063 177.90543981842026 415.56914137250703 182.90362363325715 Q 416.0691061121078 187.90180744809408 417.56900033091006 193.89962802589838 Q 419.0688945497123 199.89744860370266 420.0688240289138 205.39545080002324 Q 421.0687535081154 210.89345299634383 423.0686124665184 216.8912735741481 Q 425.0684714249214 222.8890941519524 426.5683656437237 228.38709634827302 Q 428.06825986252596 233.8850985445936 430.06811882092893 238.8832823594305 Q 432.06797777933195 243.8814661742674 434.5678014773357 248.3798316076206 Q 437.0676251753395 252.87819704097382 439.5674488733433 256.37692571135966 Q 442.0672725713471 259.8756543817455 444.5670962693508 262.37474628916397 Q 447.06691996735464 264.8738381965824 449.56674366535844 266.87311172251714 Q 452.06656736336225 268.8723852484519 454.0664263217652 270.371840392903 Q 456.06628528016824 271.87129553735406 458.06614423857127 272.37111391883775 Q 460.0660031969743 272.87093230032144 461.5658974157766 273.37075068180513 Q 463.06579163457883 273.8705690632888 463.5657563741796 273.8705690632888 Q 464.06572111378034 273.8705690632888 465.56561533258264 273.8705690632888 Q 467.0655095513849 273.8705690632888 469.5653332493887 273.8705690632888 Q 472.06515694739244 273.8705690632888 475.0649453849969 272.37111391883775 Q 478.06473382260145 270.87165877438673 482.5644164790083 268.8723852484519 Q 487.06409913541506 266.87311172251714 492.0637465314226 262.8745646706476 Q 497.0633939274302 258.8760176187781 503.06297080263926 253.87783380394123 Q 509.06254767784833 248.87964998910434 516.0620540322589 240.38273750388157 Q 523.0615603866695 231.88582501865884 529.5611020014793 222.3892757704687 Q 536.0606436162891 212.89272652227862 542.560185231099 203.8959956555722 Q 549.0597268459088 194.89926478886576 554.5593389815172 186.402352303643 Q 560.0589511171254 177.90543981842026 564.5586337735322 172.90725600358337 Q 569.0583164299389 167.90907218874648 571.5581401279428 165.9097986628117 Q 574.0579638259466 163.91052513687694 574.5579285655473 163.41070675539325 Q 575.057893305148 162.91088837390956 575.057893305148 162.41106999242587 Q 575.057893305148 161.91125161094217 575.5578580447489 161.91125161094217 Q 576.0578227843496 161.91125161094217 576.5577875239503 162.41106999242587 Q 577.057752263551 162.91088837390956 578.0576817427525 166.90943542577907 Q 579.0576112219541 170.9079824776486 579.5575759615549 177.40562143693657 Q 580.0575407011556 183.90326039622454 580.0575407011556 190.40089935551254 Q 580.0575407011556 196.8985383148005 580.5575054407564 204.89563241853955 Q 581.0574701803572 212.89272652227862 581.5574349199578 218.8905471000829 Q 582.0573996595585 224.88836767788717 583.0573291387601 230.3863698742078 Q 584.0572586179617 235.88437207052837 585.0571880971631 239.3831007409142 Q 586.0571175763647 242.88182941130003 587.557011795167 246.38055808168588 Q 589.0569060139692 249.8792867520717 591.0567649723722 253.3780154224575 Q 593.0566239307752 256.87674409284335 595.0564828891783 259.8756543817455 Q 597.0563418475813 262.87456467064766 599.0562008059843 265.3736565780661 Q 601.0560597643873 267.8727484854846 603.5558834623912 269.8720220114193 Q 606.055707160395 271.87129553735406 609.0554955979994 272.87093230032144 Q 612.055284035604 273.8705690632888 615.0550724732085 274.3703874447725 Q 618.054860910813 274.8702058262562 620.5546846088167 274.8702058262562 Q 623.0545083068205 274.8702058262562 635.5536267968394 271.37147715587037 L 648.0537452868582 267.8717484854846" stroke-linecap="round" />
</g>
</svg>